<svg width="256" height="256" viewBox="0 0 256 256" fill="none" xmlns="http://www.w3.org/2000/svg">
  <defs>
    <linearGradient id="bg" x1="38" y1="30" x2="214" y2="226" gradientUnits="userSpaceOnUse">
      <stop stop-color="#2DB6FF"/>
      <stop offset="0.48" stop-color="#155EEF"/>
      <stop offset="1" stop-color="#0F4ACB"/>
    </linearGradient>
    <linearGradient id="shield" x1="78" y1="62" x2="176" y2="188" gradientUnits="userSpaceOnUse">
      <stop stop-color="white"/>
      <stop offset="1" stop-color="#D8E6FF"/>
    </linearGradient>
    <filter id="shadow" x="18" y="18" width="220" height="220" filterUnits="userSpaceOnUse" color-interpolation-filters="sRGB">
      <feFlood flood-opacity="0" result="BackgroundImageFix"/>
      <feColorMatrix in="SourceAlpha" type="matrix" values="0 0 0 0 0 0 0 0 0 0 0 0 0 0 0 0 0 0 127 0" result="hardAlpha"/>
      <feOffset dy="14"/>
      <feGaussianBlur stdDeviation="14"/>
      <feColorMatrix type="matrix" values="0 0 0 0 0.0588235 0 0 0 0 0.290196 0 0 0 0 0.796078 0 0 0 0.22 0"/>
      <feBlend mode="normal" in2="BackgroundImageFix" result="effect1_dropShadow_1_2"/>
      <feBlend mode="normal" in="SourceGraphic" in2="effect1_dropShadow_1_2" result="shape"/>
    </filter>
  </defs>
  <g filter="url(#shadow)">
    <rect x="32" y="24" width="192" height="192" rx="48" fill="url(#bg)"/>
  </g>
  <path d="M128 54L176 72V119C176 151.4 155.6 181.2 128 194C100.4 181.2 80 151.4 80 119V72L128 54Z" fill="url(#shield)" fill-opacity="0.16"/>
  <path d="M128 66L167 81V118.5C167 144.7 151.2 169.2 128 180.7C104.8 169.2 89 144.7 89 118.5V81L128 66Z" stroke="url(#shield)" stroke-width="10" stroke-linejoin="round"/>
  <rect x="94" y="98" width="68" height="42" rx="13" fill="white"/>
  <path d="M98 106L128 128L158 106" stroke="#155EEF" stroke-width="8" stroke-linecap="round" stroke-linejoin="round"/>
  <circle cx="161" cy="149" r="20" fill="#0F4ACB"/>
  <path d="M152 149L159 156L172 142" stroke="white" stroke-width="8" stroke-linecap="round" stroke-linejoin="round"/>
</svg>
